<?xml version="1.0" standalone="no"?><svg xmlns="http://www.w3.org/2000/svg" viewBox="0 0 1440 320"><path fill="#a2d9ff" fill-opacity="0.25" d="M0,256L24,250.7C48,245,96,235,144,197.3C192,160,240,96,288,80C336,64,384,96,432,144C480,192,528,256,576,261.3C624,267,672,213,720,186.7C768,160,816,160,864,176C912,192,960,224,1008,224C1056,224,1104,192,1152,149.3C1200,107,1248,53,1296,58.7C1344,64,1392,128,1416,160L1440,192L1440,0L1416,0C1392,0,1344,0,1296,0C1248,0,1200,0,1152,0C1104,0,1056,0,1008,0C960,0,912,0,864,0C816,0,768,0,720,0C672,0,624,0,576,0C528,0,480,0,432,0C384,0,336,0,288,0C240,0,192,0,144,0C96,0,48,0,24,0L0,0Z"></path></svg>